<svg xmlns="http://www.w3.org/2000/svg" xmlns:xlink="http://www.w3.org/1999/xlink" width="71.28" height="57.849" viewBox="0 0 71.28 57.849">
  <defs>
    <clipPath id="clip-path">
      <path id="Path_3178" data-name="Path 3178" d="M38-48A20,20,0,0,0,58-68,20,20,0,0,0,38-88,20,20,0,0,0,18-68,20,20,0,0,0,38-48Z" fill="none" clip-rule="evenodd"/>
    </clipPath>
    <clipPath id="clip-path-2">
      <path id="Path_3177" data-name="Path 3177" d="M-20,1146H355V-703H-20Z" fill="none"/>
    </clipPath>
    <clipPath id="clip-path-3">
      <path id="Path_3181" data-name="Path 3181" d="M35.949-78,23.714-65.765,34.337-55.143,46.571-67.377V-78Zm-.794,6.015a1.8,1.8,0,0,1,1.792,1.792,1.8,1.8,0,0,1-1.792,1.8,1.8,1.8,0,0,1-1.8-1.8A1.8,1.8,0,0,1,35.155-71.985Zm-1.227,12.03a1.8,1.8,0,0,1-1.792-1.792,1.8,1.8,0,0,1,1.792-1.8,1.8,1.8,0,0,1,1.8,1.8A1.8,1.8,0,0,1,33.928-59.955Zm5.426-4.812H29.729v-2.406h9.624Zm3.008-7.218a1.8,1.8,0,0,1-1.8-1.8,1.8,1.8,0,0,1,1.8-1.8,1.8,1.8,0,0,1,1.8,1.8A1.8,1.8,0,0,1,42.361-71.985Z" fill="none"/>
    </clipPath>
  </defs>
  <g id="indirimli" transform="translate(-26 -53.766)">
    <rect id="Rectangle" width="71.28" height="57.849" transform="translate(26 53.766)" fill="none"/>
    <circle id="Oval" cx="28.105" cy="28.105" r="28.105" transform="translate(33.999 54.765)" fill="#9ab0c7" opacity="0.144"/>
    <g id="Group_1062" data-name="Group 1062" transform="translate(22420 22025.658)">
      <g id="Group_1041" data-name="Group 1041" transform="translate(-22396 -21874.893)" clip-path="url(#clip-path)">
        <g id="Group_1040" data-name="Group 1040" clip-path="url(#clip-path-2)">
          <path id="Path_3176" data-name="Path 3176" d="M17-89H59v42H17Z" fill="#fff"/>
        </g>
      </g>
      <g id="Group_1043" data-name="Group 1043" transform="translate(-22395 -21874.893)" clip-path="url(#clip-path-3)">
        <g id="Group_1042" data-name="Group 1042" clip-path="url(#clip-path-2)">
          <path id="Path_3179" data-name="Path 3179" d="M22.714-79H47.571v24.857H22.714Z" fill="#1a3b7a"/>
        </g>
      </g>
    </g>
  </g>
</svg>
