<svg xmlns="http://www.w3.org/2000/svg" xmlns:xlink="http://www.w3.org/1999/xlink" width="71.28" height="57.849" viewBox="0 0 71.28 57.849">
  <defs>
    <clipPath id="clip-path">
      <rect id="Rectangle_1365" data-name="Rectangle 1365" width="41.429" height="40" transform="translate(0 0)" fill="none"/>
    </clipPath>
  </defs>
  <g id="Yeni" transform="translate(-156 -54.766)">
    <rect id="Rectangle" width="71.28" height="57.849" transform="translate(156 54.766)" fill="none"/>
    <circle id="Oval" cx="28.107" cy="28.107" r="28.107" transform="translate(162.893 55.767)" fill="#9ab0c7" opacity="0.144"/>
    <g id="Group_1064" data-name="Group 1064" transform="translate(170 63.765)">
      <g id="Group_1063" data-name="Group 1063" clip-path="url(#clip-path)">
        <path id="Path_3200" data-name="Path 3200" d="M23.73.33a5.119,5.119,0,0,1,6.079,1.98L30.8,3.831a3.708,3.708,0,0,0,2.139,1.557l1.75.475a5.134,5.134,0,0,1,3.757,5.183l-.091,1.815a3.728,3.728,0,0,0,.817,2.52L40.31,16.8a5.146,5.146,0,0,1,0,6.406l-1.138,1.415a3.728,3.728,0,0,0-.817,2.52l.091,1.815a5.134,5.134,0,0,1-3.757,5.183l-1.75.475A3.708,3.708,0,0,0,30.8,36.171l-.991,1.521a5.119,5.119,0,0,1-6.079,1.98l-1.694-.647a3.7,3.7,0,0,0-2.644,0l-1.694.647a5.119,5.119,0,0,1-6.079-1.98l-.991-1.521a3.708,3.708,0,0,0-2.139-1.557l-1.75-.475a5.134,5.134,0,0,1-3.757-5.183l.091-1.815a3.733,3.733,0,0,0-.817-2.52L1.118,23.2a5.146,5.146,0,0,1,0-6.406l1.138-1.415a3.733,3.733,0,0,0,.817-2.52l-.091-1.815A5.134,5.134,0,0,1,6.739,5.861l1.75-.475a3.708,3.708,0,0,0,2.139-1.557l.991-1.521A5.119,5.119,0,0,1,17.7.328l1.694.647a3.7,3.7,0,0,0,2.644,0Z" fill="#fff"/>
        <path id="Path_3201" data-name="Path 3201" d="M20.714,5.374A14.626,14.626,0,1,0,35.307,20,14.667,14.667,0,0,0,20.714,5.374m0,27.868a13.242,13.242,0,0,1,0-26.484h0a13.337,13.337,0,0,1,12.67,9.483A12.747,12.747,0,0,1,33.925,20,13.24,13.24,0,0,1,20.714,33.242" fill="#002581"/>
        <rect id="Rectangle_1361" data-name="Rectangle 1361" width="1.356" height="1.284" transform="translate(29.121 15.171)" fill="#002581"/>
        <path id="Path_3202" data-name="Path 3202" d="M16.222,17.093h4.614l0,1.35H17.764v1.294H20.4v1.247H17.768V22.4h3.154v1.349h-4.7Z" fill="#002581"/>
        <path id="Path_3203" data-name="Path 3203" d="M13.288,23.749H11.744V21.462L9.4,17.093h1.681l1.435,3.056,1.469-3.056h1.676L13.288,21.48Z" fill="#002581"/>
        <path id="Path_3204" data-name="Path 3204" d="M25.9,27.961H15.534a.692.692,0,0,1,0-1.384H25.9a.692.692,0,0,1,0,1.384" fill="#002581"/>
        <path id="Path_3205" data-name="Path 3205" d="M27.743,23.75H26.5l-3.075-3.807v3.806H21.881V17.093h1.2L26.2,21V17.094h1.543Z" fill="#002581"/>
        <rect id="Rectangle_1362" data-name="Rectangle 1362" width="1.544" height="6.656" transform="translate(29.027 17.093)" fill="#002581"/>
        <path id="Path_3206" data-name="Path 3206" d="M25.9,26.577H15.534a.692.692,0,0,0,0,1.384H25.9a.692.692,0,0,0,0-1.384" fill="#002581"/>
        <path id="Path_3207" data-name="Path 3207" d="M13.985,17.093l-1.469,3.056-1.435-3.056H9.4l2.344,4.369v2.287h1.544V21.48l2.373-4.387Z" fill="#002581"/>
        <path id="Path_3208" data-name="Path 3208" d="M20.922,22.4H17.768V20.984H20.4V19.737H17.764V18.443h3.069l0-1.35H16.222v6.656h4.7Z" fill="#002581"/>
        <path id="Path_3209" data-name="Path 3209" d="M26.2,21l-3.114-3.907h-1.2v6.656h1.544V19.943L26.5,23.75h1.243V17.094H26.2Z" fill="#002581"/>
        <rect id="Rectangle_1363" data-name="Rectangle 1363" width="1.544" height="6.656" transform="translate(29.027 17.093)" fill="#002581"/>
        <rect id="Rectangle_1364" data-name="Rectangle 1364" width="1.356" height="1.284" transform="translate(29.121 15.171)" fill="#002581"/>
      </g>
    </g>
  </g>
</svg>
